HIERARCHY
ROOT Hips
{
	OFFSET -0.001795 -0.223333 0.028219
	CHANNELS 6 Xposition Yposition Zposition Zrotation Yrotation Xrotation 
	JOINT LeftUpLeg
	{
		OFFSET 0.069520 -0.091406 -0.006815
		CHANNELS 3 Zrotation Yrotation Xrotation
		JOINT LeftLeg
		{
			OFFSET 0.034277 -0.375199 -0.004496
			CHANNELS 3 Zrotation Yrotation Xrotation
			JOINT LeftFoot
			{
				OFFSET -0.013596 -0.397961 -0.043693
				CHANNELS 3 Zrotation Yrotation Xrotation
				JOINT LeftToe
				{
					OFFSET 0.026358 -0.055791 0.119288
					CHANNELS 3 Zrotation Yrotation Xrotation
					End Site
					{
						OFFSET 0.000000 0.000000 0.000000
					}
				}
			}
		}
	}
	JOINT RightUpLeg
	{
		OFFSET -0.067670 -0.090522 -0.004320
		CHANNELS 3 Zrotation Yrotation Xrotation
		JOINT RightLeg
		{
			OFFSET -0.038290 -0.382569 -0.008850
			CHANNELS 3 Zrotation Yrotation Xrotation
			JOINT RightFoot
			{
				OFFSET 0.015774 -0.398415 -0.042312
				CHANNELS 3 Zrotation Yrotation Xrotation
				JOINT RightToe
				{
					OFFSET -0.025372 -0.048144 0.123348
					CHANNELS 3 Zrotation Yrotation Xrotation
					End Site
					{
						OFFSET 0.000000 0.000000 0.000000
					}
				}
			}
		}
	}
	JOINT Spine
	{
		OFFSET -0.002533 0.108963 -0.026696
		CHANNELS 3 Zrotation Yrotation Xrotation
		JOINT Spine1
		{
			OFFSET 0.005487 0.135180 0.001092
			CHANNELS 3 Zrotation Yrotation Xrotation
			JOINT Spine2
			{
				OFFSET 0.001457 0.052922 0.025425
				CHANNELS 3 Zrotation Yrotation Xrotation
				JOINT Neck
				{
					OFFSET -0.002778 0.213870 -0.042857
					CHANNELS 3 Zrotation Yrotation Xrotation
					JOINT Head
					{
						OFFSET 0.005152 0.064970 0.051349
						CHANNELS 3 Zrotation Yrotation Xrotation
						End Site
						{
							OFFSET 0.000000 0.000000 0.000000
						}
					}
				}
				JOINT LeftShoulder
				{
					OFFSET 0.078845 0.121749 -0.034090
					CHANNELS 3 Zrotation Yrotation Xrotation
					JOINT LeftArm
					{
						OFFSET 0.090977 0.030469 -0.008868
						CHANNELS 3 Zrotation Yrotation Xrotation
						JOINT LeftForeArm
						{
							OFFSET 0.259612 -0.012772 -0.027456
							CHANNELS 3 Zrotation Yrotation Xrotation
							JOINT LeftHand
							{
								OFFSET 0.249234 0.008986 -0.001171
								CHANNELS 3 Zrotation Yrotation Xrotation
								End Site
								{
									OFFSET 0.000000 0.000000 0.000000
								}
							}
						}
					}
				}
				JOINT RightShoulder
				{
					OFFSET -0.081759 0.118833 -0.038615
					CHANNELS 3 Zrotation Yrotation Xrotation
					JOINT RightArm
					{
						OFFSET -0.096012 0.032551 -0.009143
						CHANNELS 3 Zrotation Yrotation Xrotation
						JOINT RightForeArm
						{
							OFFSET -0.253742 -0.013329 -0.021401
							CHANNELS 3 Zrotation Yrotation Xrotation
							JOINT RightHand
							{
								OFFSET -0.255298 0.007772 -0.005559
								CHANNELS 3 Zrotation Yrotation Xrotation
								End Site
								{
									OFFSET 0.000000 0.000000 0.000000
								}
							}
						}
					}
				}
			}
		}
	}
}
MOTION
Frames: 8
Frame Time: 0.050000
-1.056114 0.738779 -0.084646 -9.673231 -23.415164 13.090802 24.006233 15.180561 -50.499418 5.203796 -0.257776 64.106365 3.678772 4.268089 -11.404493 0.000000 0.000000 0.000000 -37.048958 -0.773516 -44.573209 16.879053 -3.363133 36.976296 -6.488371 -20.461758 34.337191 0.000000 0.000000 0.000000 -1.105630 7.958853 68.432699 -2.341354 0.936831 -36.367345 -2.852185 5.511242 24.860866 17.616999 -0.764072 -58.149492 0.000000 0.000000 0.000000 -16.987890 -28.116814 14.024141 -23.861212 -21.763269 -0.432267 -9.337834 -51.723497 6.623876 0.000000 0.000000 0.000000 27.380921 20.379463 11.716209 54.556122 37.299837 10.377452 14.402382 55.560574 11.044593 0.000000 0.000000 0.000000 
-1.095887 0.721490 -0.093573 -7.739887 -21.331352 11.489159 25.498282 14.987881 -50.111600 5.070871 -0.811843 63.867269 2.899526 2.155647 -11.468128 0.000000 0.000000 0.000000 -38.107976 -1.852697 -45.137201 18.580240 -4.797618 42.390625 -7.846268 -21.568472 30.779829 0.000000 0.000000 0.000000 1.456792 5.306960 70.038975 -3.980654 1.134903 -35.974187 -4.686197 3.906741 23.967230 17.786981 -0.981665 -57.169497 0.000000 0.000000 0.000000 -16.995836 -29.182328 14.699981 -22.678651 -21.912741 -0.406993 -6.870088 -50.280833 5.219616 0.000000 0.000000 0.000000 28.564470 19.251622 10.743909 55.210494 37.047165 10.580623 15.147660 55.103308 11.142139 0.000000 0.000000 0.000000 
-1.136866 0.708267 -0.105535 -6.146448 -20.023302 10.202060 26.885636 14.993606 -49.472463 5.590295 -1.645966 62.721381 1.728499 0.157275 -9.050933 0.000000 0.000000 0.000000 -39.200176 -2.820294 -46.401546 21.681649 -7.126788 47.035820 -11.202851 -25.452518 29.466531 0.000000 0.000000 0.000000 2.626249 4.017386 71.769322 -4.395925 1.194267 -35.839144 -5.096193 2.440321 24.284572 16.730936 -0.736505 -57.482086 0.000000 0.000000 0.000000 -16.837411 -29.981662 15.246302 -21.580486 -23.161100 -0.320065 -1.690923 -49.543538 2.754612 0.000000 0.000000 0.000000 26.435954 19.237957 10.075158 54.881045 37.213664 10.589966 16.115071 56.202214 11.741674 0.000000 0.000000 0.000000 
-1.177571 0.701860 -0.119168 -4.775416 -19.132623 9.525812 28.455174 15.021730 -48.112964 5.678741 -1.930314 59.666480 0.472096 -1.136936 -5.222258 0.000000 0.000000 0.000000 -38.827647 -3.324838 -48.130492 23.250396 -8.761741 51.036650 -13.183334 -28.288202 25.060841 0.000000 0.000000 0.000000 3.526092 2.975432 72.518690 -4.052332 1.148429 -35.561980 -5.976490 2.215062 23.973224 16.561510 -0.675329 -57.413525 0.000000 0.000000 0.000000 -16.701029 -30.869160 15.629662 -21.507694 -23.373466 -0.265169 1.341712 -48.765638 1.333511 0.000000 0.000000 0.000000 26.071061 18.748446 9.724573 53.142692 36.806589 9.912708 16.123574 56.675631 11.773278 0.000000 0.000000 0.000000 
-1.217930 0.701365 -0.132804 -3.219672 -17.472270 9.725965 29.160021 14.206035 -46.862865 5.869457 -2.281059 54.324765 -0.615767 -1.641889 -0.851600 0.000000 0.000000 0.000000 -39.632399 -4.343455 -49.331316 26.340633 -11.436405 52.754612 -15.408630 -31.571281 22.227008 0.000000 0.000000 0.000000 4.559212 1.408893 72.707561 -4.501565 1.218375 -35.538960 -6.556347 1.198410 23.939462 15.510353 -0.455847 -57.250763 0.000000 0.000000 0.000000 -17.021816 -31.409105 16.188662 -21.311973 -25.087812 -0.059326 3.962683 -48.083964 0.208751 0.000000 0.000000 0.000000 25.242370 18.724378 9.369994 51.596516 36.285509 9.261623 15.418419 56.325225 11.125929 0.000000 0.000000 0.000000 
-1.258722 0.706564 -0.145985 -1.534064 -15.941703 9.961254 30.245023 13.430094 -44.952482 4.874611 -1.814193 48.113951 -1.839968 -1.571314 5.458664 0.000000 0.000000 0.000000 -38.517000 -4.744295 -50.381548 26.812568 -12.460822 54.565209 -17.251102 -34.827207 18.976342 0.000000 0.000000 0.000000 5.508499 -0.054888 72.319867 -5.038846 1.300467 -36.114096 -7.417014 0.793333 24.940311 16.367859 -0.768294 -56.765740 0.000000 0.000000 0.000000 -17.206341 -32.448653 16.919751 -21.185618 -25.985824 -0.011685 4.832666 -47.703287 -0.142221 0.000000 0.000000 0.000000 22.964794 18.446315 8.907494 50.719844 36.524526 9.010402 14.607155 56.078646 10.589480 0.000000 0.000000 0.000000 
-1.300690 0.716112 -0.158162 0.339092 -14.535284 10.010637 30.833065 12.190439 -42.311452 4.190637 -1.545026 41.038510 -3.056583 -1.056695 12.847428 0.000000 0.000000 0.000000 -37.964697 -5.065674 -50.026166 28.374268 -13.593581 54.014504 -18.927098 -38.385639 15.174841 0.000000 0.000000 0.000000 6.324236 -1.348960 71.668958 -5.418332 1.376612 -35.561844 -8.181908 0.413044 25.106153 15.202994 -0.513850 -56.592400 0.000000 0.000000 0.000000 -18.107783 -32.611596 17.350123 -21.532789 -26.539929 0.081609 5.215147 -48.494830 -0.275046 0.000000 0.000000 0.000000 20.841994 18.004175 8.394164 50.239737 37.196309 9.138387 15.740252 55.051714 10.883847 0.000000 0.000000 0.000000 
-1.344165 0.726053 -0.169393 1.893866 -13.305338 9.544329 32.165474 11.322606 -39.126115 2.838315 -1.019246 34.473671 -4.449909 -0.599499 20.463058 0.000000 0.000000 0.000000 -36.199499 -4.839139 -49.301170 29.028091 -14.008451 53.826674 -20.126630 -41.876290 10.717681 0.000000 0.000000 0.000000 7.514454 -2.762278 70.701822 -6.485358 1.561162 -34.733060 -8.864716 0.339842 25.076160 15.056714 -0.452248 -56.569837 0.000000 0.000000 0.000000 -19.022250 -32.937623 17.791153 -23.008525 -25.928857 0.147408 4.051201 -49.001939 0.269261 0.000000 0.000000 0.000000 19.361192 17.375051 7.900133 50.310696 36.930198 9.022833 17.257882 54.312663 11.438693 0.000000 0.000000 0.000000 
